# xmcd CD database file
#
# Track frame offsets:
#	182
#	12932
#	25382
#	42382
#	54160
#	69657
#	81082
#	92747
#	105197
#	116122
#
# Disc length: 1716 seconds
#
# Revision: 1
# Processed by: cddbd v1.4PL0 Copyright (c) Steve Scherf et al.
# Submitted via: CDex 1.40Release
#
DISCID=7706b20a
DTITLE=Now Thats  Country  - Now Thats  Country (the best of)
DYEAR=1900
DGENRE=Country
TTITLE0=I Fall To Pieces
TTITLE1=Next In Line
TTITLE2=I Let My Mind Wonder
TTITLE3=Walking After Midnight
TTITLE4=Story Book Children
TTITLE5=Story Book Williams
TTITLE6=Funnyb Face
TTITLE7=Wasted Days and Easyed Night
TTITLE8=Burning Memories
TTITLE9=Little Blossom
EXTD=ID3G: 2
EXTT0=
EXTT1=
EXTT2=
EXTT3=
EXTT4=
EXTT5=
EXTT6=
EXTT7=
EXTT8=
EXTT9=
PLAYORDER=
